<?xml version="1.0" standalone="no"?>
<!DOCTYPE svg PUBLIC "-//W3C//DTD SVG 20010904//EN"
 "http://www.w3.org/TR/2001/REC-SVG-20010904/DTD/svg10.dtd">
<svg version="1.0" xmlns="http://www.w3.org/2000/svg"
 width="300.000000pt" height="300.000000pt" viewBox="0 0 300.000000 300.000000"
 preserveAspectRatio="xMidYMid meet">
<metadata>
Created by potrace 1.11, written by Peter Selinger 2001-2013
</metadata>
<g transform="translate(0.000000,300.000000) scale(0.100000,-0.100000)"
fill="#000000" stroke="none">
<path d="M1400 1980 c-194 -20 -374 -100 -475 -212 l-46 -51 85 -45 c209 -108
284 -294 181 -446 l-25 -37 43 -18 c37 -15 63 -23 162 -48 11 -3 79 -7 150
-10 108 -4 146 -1 223 16 97 21 186 55 180 68 -48 95 -53 111 -53 178 0 59 5
79 30 123 37 67 105 129 190 173 36 19 65 37 65 41 0 5 -17 27 -37 50 -143
158 -409 244 -673 218z m229 -199 c26 -37 26 -65 0 -102 -28 -40 -67 -39 -103
2 -26 28 -31 30 -90 28 -61 -2 -108 12 -93 28 5 4 43 9 84 10 72 1 77 3 100
32 33 41 74 42 102 2z m-399 -89 c0 -47 36 -119 72 -146 38 -27 45 -15 13 20
-63 68 -48 100 17 38 72 -70 118 -134 118 -166 l0 -29 -57 7 c-32 3 -60 11
-62 16 -2 6 -30 41 -61 78 -64 73 -86 128 -76 184 10 50 36 49 36 -2z m564 22
c11 -29 6 -95 -10 -127 -9 -18 -38 -54 -63 -82 -26 -27 -51 -57 -57 -66 -6
-11 -30 -19 -66 -23 -56 -7 -58 -7 -58 16 1 13 6 33 13 44 22 40 147 165 157
159 16 -10 12 -19 -26 -63 -42 -50 -23 -58 23 -9 43 45 53 69 53 121 0 33 4
46 14 46 8 0 17 -7 20 -16z m-349 -326 c16 -48 12 -53 -43 -52 -61 2 -57 0
-66 37 -6 27 -6 27 49 27 36 0 57 -5 60 -12z m215 -5 c0 -33 -18 -46 -69 -51
-51 -5 -51 -5 -51 25 0 40 5 43 67 43 44 0 53 -3 53 -17z"/>
<path d="M1615 1730 c3 -5 8 -10 11 -10 2 0 4 5 4 10 0 6 -5 10 -11 10 -5 0
-7 -4 -4 -10z"/>
<path d="M2213 1548 c-19 -24 -83 -139 -83 -149 0 -5 107 -9 270 -9 149 0 270
3 270 8 0 4 -19 41 -43 82 l-43 75 -180 3 c-137 2 -184 -1 -191 -10z m107 -95
c0 -20 -4 -32 -10 -28 -5 3 -10 17 -10 31 0 15 -6 24 -15 24 -10 0 -15 -10
-15 -30 0 -16 -4 -30 -10 -30 -16 0 -11 58 7 87 l17 25 18 -22 c10 -12 18 -38
18 -57z m102 50 c10 -9 18 -30 18 -50 0 -40 -17 -44 -22 -5 -4 34 -33 37 -33
3 0 -13 -6 -26 -12 -28 -19 -7 -16 57 4 79 20 22 22 22 45 1z m110 0 c10 -9
18 -30 18 -50 0 -39 -17 -45 -22 -6 -4 35 -28 43 -28 9 0 -13 -4 -28 -10 -31
-14 -9 -13 68 2 83 15 15 18 15 40 -5z"/>
<path d="M445 1528 c-42 -33 -59 -81 -44 -126 17 -53 70 -122 139 -182 33 -29
63 -63 66 -76 7 -26 24 -33 24 -10 0 35 -25 74 -74 118 -65 58 -116 134 -116
174 0 65 61 100 120 69 27 -14 33 -14 52 0 50 35 128 -2 128 -60 0 -33 -38
-107 -83 -165 -20 -24 -34 -46 -32 -49 3 -2 19 6 37 19 79 54 129 162 109 232
-20 66 -105 100 -159 62 -20 -14 -24 -14 -44 0 -32 23 -90 20 -123 -6z"/>
<path d="M2190 1295 l0 -85 90 0 90 0 0 55 c0 54 0 55 30 55 30 0 30 -1 30
-55 l0 -55 90 0 90 0 0 85 0 85 -210 0 -210 0 0 -85z m138 -16 l0 -40 -47 3
c-41 3 -46 6 -48 28 -3 41 3 47 50 47 l46 1 -1 -39z m237 1 c0 -35 -1 -35 -46
-38 l-47 -3 0 40 -1 40 47 -2 c47 -2 47 -2 47 -37z"/>
<path d="M2390 1279 c0 -11 5 -19 12 -17 17 6 19 38 2 38 -8 0 -14 -9 -14 -21z"/>
<path d="M2190 1190 c0 -6 77 -10 210 -10 133 0 210 4 210 10 0 6 -77 10 -210
10 -133 0 -210 -4 -210 -10z"/>
</g>
</svg>
